OpenSim_Sub09_EMGStiffKnee_GRF.mot
version=1
nRows=34
nColumns=19
inDegrees=no
endheader
time	lFx	lFy	lFz	lCOPx	lCOPy	lCOPz	rFx	rFy	rFz	rCOPx	rCOPy	rCOPz	lMx	lMy	lMz	rMx	rMy	rMz
18.96000000	101.97437727	706.30454064	66.36936812	0.67127415	0	-0.71984335	-0.12820720	-0.57735523	0.06273616	-0.00006891	0	0.00002442	0	-8.50756316	0	0	0.00000039	-0.00000000
18.97000000	106.24084424	699.04702480	66.69700540	0.66503021	0	-0.72012870	-0.11282570	-0.58550861	0.05125404	-0.00006621	0	0.00002263	0	-8.47855251	0	0	-0.00004405	-0.00000000
18.98000000	109.84390016	688.07270841	66.81078503	0.65907252	0	-0.72045162	-0.10384547	-0.56448104	0.04715962	0.00005877	0	-0.00002337	0	-8.43987910	0	0	-0.00013622	0.00000000
18.99000000	112.78924875	673.63407381	66.59128159	0.65333727	0	-0.72078949	-0.10715495	-0.43783530	0.07277376	0.00043085	0	-0.00015730	0	-8.35605164	0	0	-0.00024964	0.00000000
19	115.06410011	655.68468997	65.80288456	0.64763892	0	-0.72109524	-0.12205554	-0.24415028	0.09250488	0.00109504	0	-0.00039253	0	-8.18329926	0	0	-0.00024707	0.00000000
19.01000000	116.42379020	633.80890177	64.29582860	0.64212008	0	-0.72129728	-0.13582616	0.05816559	0.07176759	0.00171586	0	-0.00060425	0	-7.90094956	0	0	0.00019084	0.00000000
19.02000000	116.50583618	607.20196968	61.89486484	0.63679301	0	-0.72133868	-0.13547663	0.34299771	0.04003280	0.00109633	0	-0.00035987	0	-7.46644928	0	0	0.00152062	0.00000000
19.03000000	115.04079156	574.99657110	58.54071519	0.63150035	0	-0.72119641	-0.11336799	0.18917698	0.03445270	-0.00315284	0	0.00119045	0	-6.81151271	0	0	0.00392771	0.00000000
19.04000000	111.69411329	536.79166152	54.23227302	0.62615166	0	-0.72087278	0.01227670	-1.11203200	0.06076098	-0.01380123	0	0.00500600	0	-5.93743270	0	0	0.00624832	0.00000000
19.05000000	106.12623057	492.73605772	49.06675702	0.62081575	0	-0.72033142	0.35883628	-4.33171244	0.04965278	-0.03026089	0	0.01079862	0	-4.90772189	0	0	0.00421936	-0.00000000
19.06000000	98.03971069	443.71930199	43.41471518	0.61565353	0	-0.71958402	0.94070016	-9.19683314	0.03206370	-0.04023128	0	0.01404936	0	-3.79650118	0	0	-0.01078644	-0.00000000
19.07000000	87.39127787	391.48566480	37.85477290	0.61048364	0	-0.71876991	1.41680942	-11.71375174	0.07340544	-0.00831627	0	0.00202796	0	-2.77294402	0	0	-0.04899356	-0.00000000
19.08000000	74.56235516	337.95708036	32.82295362	0.60480376	0	-0.71815297	0.65410866	-1.00986441	0.11330384	0.12711392	0	-0.04707024	0	-1.98457941	0	0	-0.10896368	0
19.09000000	60.34700252	285.28136100	28.45234069	0.59906153	0	-0.71844112	-3.48647501	41.32783564	0.09697985	0.42035834	0	-0.15167120	0	-1.43684547	0	0	-0.14752717	0
19.10000000	45.65184936	235.72143393	24.73397253	0.59491711	0	-0.72088639	-13.37832203	130.50410838	-0.13568679	0.80770196	0	-0.28702456	0	-1.08226414	0	0	-0.05525052	0
19.11000000	31.35810536	190.88138444	21.59475122	0.59386127	0	-0.72656188	-33.62734571	257.16843325	-1.46920546	1.08943140	0	-0.38330846	0	-0.87024304	0	0	-0.04802046	0
19.12000000	18.23042669	151.40237510	18.95255681	0.59556837	0	-0.73417728	-68.31729109	390.50612340	-5.05008668	1.21552380	0	-0.42496880	0	-0.68650067	0	0	-0.08234815	0
19.13000000	6.67701886	117.30416128	16.70107524	0.59300421	0	-0.73507834	-110.43549554	507.48661350	-12.47033409	1.24465058	0	-0.43237277	0	-0.40337782	0	0	-0.16828485	0
19.14000000	-3.08338839	88.25189555	14.65560081	0.56967552	0	-0.70776821	-144.83299958	594.97510621	-23.90406625	1.23656975	0	-0.42632442	0	-0.00445945	0	0	-0.58192154	0.00000000
19.15000000	-10.81163095	63.78433645	12.75171344	0.50189086	0	-0.61983794	-165.32087156	646.77160112	-37.37810078	1.22199945	0	-0.41848451	0	0.33107755	0	0	-1.16064842	0
19.16000000	-15.55930839	43.39339719	10.92425679	0.37581606	0	-0.45422849	-175.55505429	668.80023571	-50.62245198	1.21015360	0	-0.41284163	0	0.32167259	0	0	-1.51826179	-0.00000000
19.17000000	-15.56048142	26.31348888	8.67268476	0.21787664	0	-0.25238399	-179.85693646	674.81832587	-62.59234259	1.20183694	0	-0.40947933	0	0.10147160	0	0	-1.81221051	0
19.18000000	-11.03829786	12.43681805	5.91590898	0.08305773	0	-0.09007263	-182.14839108	678.58566057	-73.15887299	1.19592501	0	-0.40737799	0	-0.03702606	0	0	-2.05975977	0
19.19000000	-5.71427074	3.25436695	3.96906109	0.00955180	0	-0.00610990	-184.76412506	689.05117865	-82.36509937	1.19143662	0	-0.40573917	0	-0.05667897	0	0	-2.23520743	0
19.20000000	-2.52581720	-0.72929309	3.26206413	-0.01419878	0	0.01882529	-187.79763719	708.53240459	-89.67457060	1.18766649	0	-0.40426158	0	-0.03595765	0	0	-2.50300341	0
19.21000000	-1.43638724	-1.38441728	2.88433385	-0.01397299	0	0.01679744	-188.51302343	731.53954259	-93.63773022	1.18391681	0	-0.40307137	0	-0.01405913	0	0	-3.03218081	0.00000000
19.22000000	-1.46562688	-0.77436951	2.81925088	-0.00752731	0	0.00858565	-184.63562726	751.17064370	-93.80342426	1.17956634	0	-0.40225322	0	-0.00185852	0	0	-3.53824541	0
19.23000000	-1.79416770	-0.13158388	2.69244961	-0.00238721	0	0.00249609	-176.59729722	764.62757033	-92.09685109	1.17411058	0	-0.40171054	0	0.00220845	0	0	-4.04641624	0
19.24000000	-2.02054775	0.18313225	2.38072638	0.00005938	0	-0.00025065	-165.25646542	771.62786703	-90.12089476	1.16729914	0	-0.40133009	0	0.00227166	0	0	-4.54959701	0
19.25000000	-2.05996634	0.26325324	1.99578972	0.00067746	0	-0.00086047	-152.20111464	772.48998754	-88.18577647	1.15941694	0	-0.40106289	0	0.00125010	0	0	-4.91277052	0
19.26000000	-1.92390642	0.23806435	1.49434240	0.00053084	0	-0.00062803	-138.97764304	767.87520515	-85.97175321	1.15100526	0	-0.40086713	0	0.00040936	0	0	-5.16396409	-0.00000000
19.27000000	-1.70411038	0.18612213	1.00696410	0.00024956	0	-0.00027970	-126.50560192	758.11152653	-83.28301235	1.14243937	0	-0.40073365	0	0.00000055	0	0	-5.41715191	0
19.28000000	-1.46617577	0.16918368	0.54018650	0.00006132	0	-0.00006000	-115.26452425	743.72376249	-80.42617432	1.13392729	0	-0.40066742	0	-0.00010752	0	0	-5.60805531	0
19.29000000	-1.20961665	0.13712714	0.07338751	-0.00001635	0	0.00002536	-105.43752034	726.07837953	-77.76998538	1.12573802	0	-0.40062965	0	-0.00008688	0	0	-5.71938276	-0.00000000
